<svg width="80" height="62" viewBox="0 0 80 62" fill="none" xmlns="http://www.w3.org/2000/svg">
<path d="M29.1556 27.8293C30.8247 29.7587 37.2779 30.0482 40 29.9501C42.7221 30.0482 49.1753 29.7587 50.8444 27.8293C52.5511 25.8566 70.9926 11.2725 80 4.22705C74.9037 14.6778 64.8533 35.9316 65.4222 37.3407C65.9911 38.7498 69.4519 40.9808 71.1111 41.9202L65.4222 42.9771L68.2667 47.5566L62.9333 46.8521L68.2667 55.3066L59.005 50.8985L57.6 58.4771L40.1778 61.9998L22.4 58.4771L20.9778 50.7271L11.7333 55.3066L17.0667 47.5566H11.7333L14.5778 42.9771L8.88889 41.9202C10.5481 40.9808 14.0089 38.7498 14.5778 37.3407C15.1467 35.9316 5.0963 14.6778 0 4.22705C9.00741 11.2725 27.4489 25.8566 29.1556 27.8293Z" fill="#1ABFC2"/>
<path d="M47.5623 20.9738H32.5469L40.1776 0L47.5623 20.9738Z" fill="#E1B328"/>
<path d="M37.9623 20.9738H30.0854L24.1777 4.63379L37.9623 20.9738Z" fill="#E1B328"/>
<path d="M42.3931 20.9738H50.27L56.1777 4.63379L42.3931 20.9738Z" fill="#E1B328"/>
<rect x="29.8667" y="21.8408" width="20.6222" height="4.22727" fill="#E1B328"/>
</svg>
